<?xml version="1.0" standalone="no"?>
<!DOCTYPE svg PUBLIC "-//W3C//DTD SVG 20010904//EN"
 "http://www.w3.org/TR/2001/REC-SVG-20010904/DTD/svg10.dtd">
<svg version="1.0" xmlns="http://www.w3.org/2000/svg"
 width="1550.000000pt" height="1672.000000pt" viewBox="0 0 1550.000000 1672.000000"
 preserveAspectRatio="xMidYMid meet">

<g transform="translate(0.000000,1672.000000) scale(0.100000,-0.100000)"
fill="#000000" stroke="none">
<path d="M6595 16669 c-2022 -68 -3974 -297 -5962 -700 -390 -79 -442 -96
-519 -176 -26 -26 -61 -77 -78 -113 l-31 -65 -3 -680 c-5 -1054 14 -1791 63
-2405 26 -323 80 -848 89 -857 1 -1 64 12 141 28 813 173 1963 362 2905 478
1113 138 2111 216 3355 263 431 16 1966 16 2390 0 1801 -69 3296 -218 4905
-487 452 -76 1404 -256 1481 -280 18 -6 20 10 59 389 85 839 102 1302 98 2586
l-3 985 -30 58 c-39 77 -127 159 -202 187 -64 24 -671 150 -1108 229 -1779
322 -3456 500 -5295 561 -343 11 -1903 11 -2255 -1z m-785 -723 c700 -62 1283
-174 1797 -345 l144 -48 67 24 c388 141 1002 275 1552 337 578 66 1268 74
1775 20 171 -18 442 -62 468 -76 11 -5 112 -82 224 -170 112 -87 215 -163 227
-168 12 -4 48 -11 80 -15 43 -6 67 -15 87 -34 22 -19 190 -382 654 -1408 344
-760 625 -1393 625 -1408 0 -34 -41 -75 -77 -75 -15 0 -116 16 -223 35 -1268
230 -2587 358 -4290 417 -444 15 -1904 15 -2350 0 -1664 -58 -2977 -184 -4233
-408 -136 -24 -258 -44 -271 -44 -39 0 -76 37 -76 75 0 23 192 458 604 1367
331 733 615 1358 629 1388 31 66 59 84 150 98 67 11 68 11 289 183 l222 173
130 23 c149 26 429 59 621 72 195 14 967 5 1175 -13z"/>
<path d="M3545 15355 c-104 -79 -195 -152 -202 -162 -18 -27 -844 -2185 -839
-2191 3 -2 121 12 263 32 1192 167 3051 309 4328 332 293 5 376 10 399 21 15
8 55 20 89 27 l60 12 -154 47 c-1359 412 -2990 528 -4271 303 -43 -7 -78 -10
-78 -6 0 3 135 390 300 860 165 469 299 857 298 861 -2 4 -88 -57 -193 -136z"/>
<path d="M11750 15448 c45 -122 590 -1672 590 -1678 0 -4 -35 -1 -77 6 -446
78 -839 108 -1413 108 -597 0 -1007 -31 -1580 -120 -388 -60 -883 -171 -1221
-273 -228 -69 -222 -66 -168 -74 25 -3 67 -15 93 -27 42 -17 69 -20 214 -20
1120 -1 3306 -164 4560 -341 122 -18 225 -30 227 -27 3 2 -185 498 -417 1101
l-421 1097 -198 150 c-109 82 -200 150 -203 150 -3 0 3 -24 14 -52z"/>
<path d="M6805 11769 c-2068 -54 -4095 -279 -6100 -675 -181 -36 -360 -72
-396 -80 l-66 -15 9 -57 c329 -2071 1034 -4051 2046 -5747 1091 -1828 2573
-3406 4262 -4540 281 -189 762 -483 834 -511 15 -6 16 489 16 5815 l0 5821
-157 -2 c-87 0 -288 -5 -448 -9z m-2535 -1459 l35 -80 43 0 44 0 36 80 37 81
40 -3 39 -3 26 -82 c14 -45 27 -84 30 -86 3 -2 22 -7 42 -10 l36 -5 48 78 c46
75 50 78 79 73 16 -3 33 -9 37 -12 4 -4 15 -42 24 -86 9 -44 19 -83 22 -87 4
-3 23 -9 43 -13 35 -6 37 -5 90 64 33 44 59 69 67 66 8 -3 24 -8 37 -11 21 -5
23 -13 30 -100 l7 -94 39 -12 40 -11 64 63 64 64 33 -15 32 -16 -3 -94 -2 -95
34 -16 35 -17 70 55 c39 30 73 54 77 54 4 0 19 -9 35 -20 l27 -19 -14 -82
c-16 -92 -14 -101 22 -125 25 -16 27 -16 105 30 l80 46 30 -22 c22 -16 29 -27
24 -42 -3 -12 -15 -51 -27 -88 l-21 -68 24 -25 c13 -14 29 -25 36 -25 7 0 48
16 90 35 l78 36 28 -28 27 -28 -34 -78 c-19 -43 -35 -84 -35 -91 0 -7 11 -23
24 -35 l24 -23 85 26 c47 14 87 26 89 26 2 0 14 -14 27 -30 l22 -31 -47 -77
-46 -76 17 -33 c21 -38 23 -38 129 -18 74 14 80 14 92 -2 29 -39 26 -52 -24
-116 -66 -84 -65 -82 -46 -118 l16 -32 95 5 95 5 16 -34 16 -34 -67 -67 -68
-68 15 -36 15 -36 95 -7 96 -7 10 -36 c5 -20 8 -36 7 -37 -1 -1 -35 -28 -75
-60 -59 -47 -71 -61 -66 -79 3 -11 8 -28 10 -37 3 -11 30 -20 96 -32 50 -9 92
-18 93 -19 1 -2 5 -19 9 -38 6 -35 6 -35 -74 -83 -75 -45 -80 -50 -80 -82 0
-41 3 -43 105 -75 l80 -26 3 -39 2 -40 -82 -37 -83 -37 0 -41 0 -41 83 -37 83
-37 -3 -40 -3 -39 -80 -26 c-102 -32 -105 -34 -105 -75 0 -31 5 -37 78 -80 42
-26 78 -49 80 -50 2 -2 0 -19 -3 -38 l-7 -35 -94 -18 c-73 -14 -95 -22 -99
-36 -3 -10 -7 -26 -10 -37 -5 -16 44 -63 143 -137 2 -1 -1 -18 -7 -37 l-12
-35 -95 -7 -96 -7 -15 -35 -15 -36 66 -66 c69 -69 75 -84 52 -117 -13 -17 -25
-19 -109 -16 l-95 4 -17 -31 c-18 -36 -19 -35 47 -117 53 -68 56 -79 30 -111
l-17 -22 -92 16 -92 16 -20 -24 c-11 -13 -20 -29 -21 -36 0 -7 20 -46 45 -86
25 -41 45 -79 45 -84 0 -5 -10 -19 -23 -31 l-23 -22 -88 26 -88 26 -24 -23
c-13 -12 -24 -28 -24 -35 0 -7 16 -50 36 -95 l36 -82 -25 -24 -24 -25 -82 36
c-45 20 -88 36 -95 36 -7 0 -23 -11 -35 -24 l-23 -24 26 -88 26 -88 -22 -23
c-12 -13 -26 -23 -31 -23 -5 0 -44 21 -85 46 l-76 46 -33 -17 c-37 -21 -38
-26 -18 -135 13 -73 13 -75 -8 -92 -12 -10 -28 -18 -35 -18 -8 0 -45 24 -84
54 l-70 55 -35 -17 -35 -17 4 -97 4 -96 -31 -15 -30 -15 -67 66 -67 65 -40
-11 -39 -12 -7 -96 c-7 -89 -9 -96 -32 -105 -40 -15 -46 -11 -102 61 -54 71
-68 78 -114 61 -21 -8 -26 -21 -41 -98 -19 -92 -25 -103 -66 -103 -21 0 -34
14 -73 80 -52 84 -55 85 -123 65 -6 -2 -21 -38 -33 -82 -13 -43 -26 -81 -30
-84 -3 -4 -20 -10 -38 -14 -31 -6 -32 -6 -72 79 l-40 86 -43 0 -43 0 -34 -78
c-19 -42 -37 -81 -41 -85 -4 -5 -22 -4 -41 0 -31 9 -35 14 -60 94 l-27 84 -44
3 -43 3 -45 -76 c-37 -62 -49 -75 -70 -75 -42 0 -49 12 -66 103 l-16 87 -37
10 c-20 5 -39 10 -42 10 -3 0 -30 -31 -60 -70 -54 -69 -66 -76 -104 -61 -17 7
-22 22 -30 101 l-10 92 -38 16 -39 15 -66 -66 -67 -65 -32 15 -31 16 5 91 5
91 -32 18 c-17 9 -36 17 -42 17 -6 0 -38 -22 -73 -50 -69 -55 -82 -59 -114
-32 -21 17 -22 18 -6 97 8 44 15 85 15 90 0 6 -16 20 -35 32 l-35 23 -74 -45
c-40 -25 -77 -45 -82 -45 -5 1 -20 10 -33 21 l-24 19 23 78 c13 42 25 82 27
88 2 7 -11 24 -30 38 l-35 27 -82 -37 -83 -36 -25 25 -25 26 36 81 37 81 -26
35 c-15 19 -27 34 -28 34 -2 0 -40 -11 -86 -25 l-84 -25 -23 22 c-13 12 -23
26 -23 30 0 5 18 40 40 77 22 37 40 74 40 82 0 8 -10 27 -23 42 l-22 28 -85
-15 c-84 -14 -85 -14 -102 7 -26 33 -23 43 33 114 l51 65 -18 40 -18 40 -89
-3 c-78 -3 -91 -1 -103 16 -23 31 -17 47 46 110 l60 61 -16 41 -17 42 -88 7
c-49 3 -91 9 -93 13 -2 3 -7 20 -10 36 -6 28 -2 34 62 82 l69 53 -10 44 -10
44 -88 17 c-49 10 -89 21 -89 25 0 4 -3 20 -6 36 -5 27 -1 32 70 74 l76 45 -6
45 c-4 25 -7 46 -8 46 0 1 -37 13 -81 26 l-80 24 -3 39 -3 40 81 37 80 36 0
42 0 41 -80 37 -80 37 3 39 2 39 80 27 c72 24 81 30 86 56 12 55 10 59 -67
104 -75 45 -75 45 -69 80 4 19 8 36 9 38 2 1 38 9 82 17 43 9 82 19 85 23 4 4
12 24 17 44 10 37 10 37 -51 85 -33 26 -65 51 -70 54 -6 4 -5 20 2 42 l12 35
89 7 89 7 14 42 15 41 -61 62 -61 63 16 34 17 34 88 -5 89 -6 18 41 18 40 -52
66 c-52 67 -55 80 -26 119 12 16 18 16 92 2 44 -8 82 -15 86 -15 4 0 18 16 32
36 l24 36 -45 74 -44 74 21 30 c25 35 22 35 91 12 103 -35 104 -35 133 2 l26
35 -35 77 -36 78 28 28 28 27 79 -34 78 -34 34 25 c37 29 37 31 2 133 -23 69
-23 66 12 91 l30 21 76 -45 75 -46 35 26 c18 15 34 29 34 33 0 3 -7 41 -15 84
-8 43 -15 80 -15 81 0 1 16 10 34 20 l35 19 66 -53 66 -53 41 19 41 18 -6 89
-5 88 34 17 34 16 64 -63 64 -64 39 15 38 16 9 90 9 89 35 11 c20 6 39 8 42 3
21 -32 104 -131 109 -131 3 0 23 5 43 10 36 11 37 11 49 85 14 86 22 100 65
108 29 6 32 2 75 -69 l44 -75 43 3 44 3 23 72 c13 40 25 80 29 88 3 10 19 15
43 15 38 0 38 -1 73 -80z"/>
<path d="M4205 9968 c-164 -8 -328 -38 -405 -75 -71 -35 -139 -104 -175 -178
-26 -53 -29 -71 -30 -155 0 -91 2 -98 42 -182 95 -198 272 -409 413 -491 251
-146 515 -96 746 140 126 129 259 347 284 466 36 177 -71 359 -250 422 -121
43 -382 65 -625 53z"/>
<path d="M2908 9371 c-31 -10 -79 -35 -107 -55 -153 -112 -398 -503 -490 -781
-30 -89 -33 -109 -29 -185 9 -180 117 -308 297 -350 80 -19 351 -7 460 19 348
87 521 279 521 581 0 95 -16 181 -53 285 -57 163 -159 339 -237 409 -96 87
-240 117 -362 77z"/>
<path d="M5549 9375 c-115 -37 -210 -140 -303 -330 -271 -551 -80 -954 492
-1040 115 -18 290 -19 364 -4 124 26 237 118 278 227 47 123 36 216 -51 428
-124 302 -355 620 -504 697 -50 26 -73 31 -145 34 -56 2 -101 -2 -131 -12z"/>
<path d="M4164 8511 c-309 -83 -524 -363 -524 -681 0 -268 149 -507 392 -630
216 -108 493 -91 696 43 365 244 425 749 126 1067 -80 84 -165 141 -275 182
-75 28 -97 32 -214 35 -105 2 -144 -1 -201 -16z"/>
<path d="M5820 7658 c-596 -37 -851 -435 -620 -970 87 -202 185 -335 284 -383
152 -74 322 -42 447 86 166 168 353 481 435 724 38 116 44 198 19 282 -30 103
-125 203 -225 239 -58 21 -207 31 -340 22z"/>
<path d="M2590 7646 c-224 -48 -345 -258 -281 -489 87 -317 386 -769 569 -859
61 -30 74 -33 162 -33 85 0 101 3 155 29 111 54 210 186 295 388 79 189 104
371 71 508 -63 255 -285 416 -636 459 -114 14 -264 13 -335 -3z"/>
<path d="M4218 6835 c-169 -43 -341 -182 -478 -386 -80 -121 -129 -222 -141
-297 -29 -184 82 -358 266 -415 262 -83 819 -71 1015 21 118 55 199 176 208
306 5 87 -11 151 -64 251 -129 244 -330 444 -506 505 -82 28 -222 35 -300 15z"/>
<path d="M8090 10983 l0 -800 707 -469 c388 -258 710 -470 715 -472 4 -2 8
559 8 1246 l0 1249 -167 7 c-446 18 -683 26 -960 32 l-303 7 0 -800z"/>
<path d="M10958 9960 l-3 -1681 -715 475 -715 475 -5 -1666 -5 -1665 -708 471
c-389 259 -710 471 -712 471 -3 0 -5 -1507 -5 -3350 0 -1842 2 -3350 5 -3350
11 0 342 195 509 299 273 171 541 354 803 548 l113 83 2 2412 3 2411 708 -471
c389 -260 712 -472 717 -472 7 0 10 566 10 1660 0 913 2 1660 5 1660 3 0 322
-211 710 -470 388 -258 707 -470 710 -470 3 0 5 934 5 2075 l0 2075 -22 5
c-38 8 -776 93 -1043 119 -137 14 -276 28 -307 31 l-58 6 -2 -1681z"/>
<path d="M13820 8825 c0 -1345 -3 -2445 -7 -2445 -5 1 -325 212 -713 470
l-705 469 -5 -1665 -5 -1665 -708 471 c-390 258 -710 470 -713 470 -2 0 -4
-586 -4 -1302 l0 -1303 106 105 c244 242 618 659 890 993 1607 1974 2690 4347
3198 7007 71 375 101 559 90 569 -18 17 -1347 271 -1418 271 -3 0 -6 -1100 -6
-2445z"/>
</g>
</svg>
